<svg width="13" height="52" viewBox="0 0 13 52" fill="none" xmlns="http://www.w3.org/2000/svg">
<path d="M8.69229 2.7779C8.69229 10.9794 4.27455 17.9938 4.27455 26.4619C4.27455 33.4506 4.22234 39.7732 2.3111 46.5872C0.327328 53.6598 3.45509 47.0571 4.02912 44.3783C4.82517 40.6634 4.8692 36.7419 5.62441 32.9658C6.56914 28.2422 4.98483 15.8496 9.18315 12.9633C11.4001 11.4391 10.9012 10.7854 10.9012 13.8223C10.9012 16.4903 10.0819 18.5913 9.5513 21.1852C8.53904 26.134 8.9696 30.9194 8.69229 35.911C8.5692 38.1267 6.37988 36.6702 6.48342 34.8065C6.872 27.812 10.5041 20.9694 10.9012 13.8223C10.9701 12.5806 12.2587 8.85109 9.79673 12.3497C6.72574 16.7137 5.06018 19.4914 9.91944 13.4541C12.0219 10.842 10.9012 4.92149 10.9012 1.67346" stroke="#E9FEFE" stroke-width="3" stroke-linecap="round"/>
</svg>
