<svg width="25" height="74" viewBox="0 0 25 74" fill="none" xmlns="http://www.w3.org/2000/svg">
<path d="M16.3346 23.8609C15.8788 32.1578 15.2294 41.2753 11.5488 48.8948C9.44693 53.246 8.31762 48.2117 7.74459 46.4405C7.04523 44.2789 6.41221 50.8104 6.14929 53.0671C5.96363 54.6607 3.63567 74.6255 5.16757 68.0384C5.21422 67.8378 8.68277 51.624 8.35816 60.3073C8.35233 60.4633 7.84292 71.419 7.25373 64.4796C7.12411 62.953 7.07725 50.0495 5.413 57.3622C4.48729 61.4297 3.75903 65.5397 2.9587 69.6337C2.82322 70.3267 2.14944 72.2712 2.59055 71.7198C4.45335 69.3913 4.37482 66.0291 5.29029 63.1911C8.47134 53.3298 8.43661 43.1938 11.426 33.3714C12.437 30.0496 13.0213 27.9994 13.0213 24.4132C13.0213 20.9151 14.5991 20.5725 15.7211 17.6025C15.9131 17.0942 17.6695 11.3551 17.9299 11.4667C20.8133 12.7025 21.8217 24.1253 22.225 26.5607C22.7662 29.829 25.208 37.9236 19.648 34.9053C15.5723 32.6928 15.2302 28.9075 15.2302 24.7199C15.2302 17.7911 16.0334 17.9804 18.5435 25.8244C19.726 29.5198 24.0352 40.0826 21.6114 37.0528C19.9512 34.9775 18.8819 31.5201 18.1754 29.015C17.1018 25.2088 17.4391 21.1436 17.4391 17.2343C17.4391 12.0803 17.4391 6.92625 17.4391 1.77222" stroke="#E9FEFE" stroke-width="3" stroke-linecap="round"/>
</svg>
