<svg width="47" height="47" viewBox="0 0 47 47" fill="none" xmlns="http://www.w3.org/2000/svg">
<path d="M14.7639 47C32.5005 47 42.2031 28.9132 42.2031 13.2558C42.207 12.7473 42.2011 12.2387 42.1854 11.7302C44.0738 10.0464 45.704 7.96298 47 5.57713C45.2349 6.53253 43.3653 7.16349 41.4511 7.4498C43.4679 5.96651 44.9784 3.6322 45.7016 0.880997C43.8077 2.26461 41.7336 3.23453 39.5711 3.74784C38.1175 1.84272 36.1941 0.580639 34.0987 0.157082C32.0034 -0.266474 29.853 0.172136 27.9807 1.40497C26.1084 2.63781 24.6186 4.59607 23.7422 6.97643C22.8658 9.35678 22.6516 12.0264 23.1328 14.5717C19.2984 14.3362 15.5471 13.1109 12.1226 10.9752C8.69797 8.83954 5.67664 5.84133 3.25475 2.17524C2.02564 4.78953 1.65073 7.8814 2.20608 10.8234C2.76144 13.7655 4.20546 16.3373 6.24512 18.017C4.71589 17.9562 3.22007 17.4507 1.88 16.542V16.7047C1.88374 19.4428 2.65497 22.0954 4.06351 24.2149C5.47205 26.3343 7.43164 27.7908 9.6115 28.3384C8.78392 28.6191 7.92899 28.759 7.07056 28.7541C6.4652 28.7619 5.8608 28.6928 5.26694 28.5481C5.88203 30.9062 7.08166 32.9682 8.69746 34.4445C10.3133 35.9209 12.2641 36.7375 14.2762 36.7799C10.8573 40.0804 6.63653 41.8718 2.29125 41.8664C1.52544 41.8735 0.760067 41.8192 0 41.7037C4.41043 45.1652 9.53297 47.0028 14.7639 47Z" fill="#FEFDFD"/>
</svg>
