<svg width="67" height="57" viewBox="0 0 67 57" fill="none" xmlns="http://www.w3.org/2000/svg">
<path d="M33.5 0C14.9913 0 0 13.0763 0 29.2209C0 42.1511 9.58937 53.0724 22.9056 56.9442C24.5806 57.1999 25.2087 56.3232 25.2087 55.5562C25.2087 54.8622 25.1669 52.5611 25.1669 50.1138C16.75 51.4653 14.5725 48.324 13.9025 46.6803C13.5256 45.8402 11.8925 43.2469 10.4688 42.5529C9.29625 42.005 7.62125 40.6535 10.4269 40.617C13.065 40.5805 14.9494 42.7355 15.5775 43.6122C18.5925 48.0318 23.4081 46.7899 25.3344 46.0229C25.6275 44.1235 26.5069 42.8451 27.47 42.1146C20.0163 41.3841 12.2275 38.8638 12.2275 27.6868C12.2275 24.509 13.5256 21.8791 15.6613 19.8337C15.3263 19.1031 14.1537 16.108 15.9963 12.0901C15.9963 12.0901 18.8019 11.3231 25.2087 15.0853C27.8888 14.4278 30.7363 14.0991 33.5838 14.0991C36.4313 14.0991 39.2788 14.4278 41.9588 15.0853C48.3656 11.2866 51.1712 12.0901 51.1712 12.0901C53.0138 16.108 51.8413 19.1031 51.5063 19.8337C53.6419 21.8791 54.94 24.4725 54.94 27.6868C54.94 38.9003 47.1094 41.3841 39.6556 42.1146C40.87 43.0277 41.9169 44.781 41.9169 47.5204C41.9169 51.4287 41.875 54.57 41.875 55.5562C41.875 56.3232 42.5031 57.2364 44.1781 56.9442C50.8295 54.9873 56.6094 51.2595 60.7037 46.286C64.7979 41.3124 67.0001 35.3438 67 29.2209C67 13.0763 52.0088 0 33.5 0Z" fill="white"/>
</svg>
