<svg width="47" height="47" viewBox="0 0 47 47" fill="none" xmlns="http://www.w3.org/2000/svg">
<path d="M0 3.36638C0 1.50694 1.54512 0 3.45156 0H43.5484C45.4549 0 47 1.50694 47 3.36638V43.6336C47 45.4931 45.4549 47 43.5484 47H3.45156C1.54512 47 0 45.4931 0 43.6336V3.36638ZM14.5201 39.3449V18.1214H7.46713V39.3449H14.5201ZM10.9951 15.2221C13.4538 15.2221 14.9842 13.5948 14.9842 11.5561C14.9401 9.47344 13.4567 7.89013 11.0421 7.89013C8.62744 7.89013 7.05 9.47638 7.05 11.5561C7.05 13.5948 8.58044 15.2221 10.9481 15.2221H10.9951ZM25.4123 39.3449V27.4921C25.4123 26.8576 25.4593 26.2231 25.6473 25.7707C26.1555 24.5046 27.3158 23.1916 29.2663 23.1916C31.819 23.1916 32.8383 25.1362 32.8383 27.9914V39.3449H39.8912V27.1719C39.8912 20.6506 36.4133 17.6191 31.772 17.6191C28.0296 17.6191 26.3523 19.6754 25.4123 21.1236V21.197H25.3653L25.4123 21.1236V18.1214H18.3623C18.4504 20.1131 18.3623 39.3449 18.3623 39.3449H25.4123Z" fill="#FFF9F9"/>
</svg>
