<?xml version="1.0" encoding="UTF-8"?>
<!DOCTYPE svg PUBLIC "-//W3C//DTD SVG 1.1//EN" "http://www.w3.org/Graphics/SVG/1.1/DTD/svg11.dtd">
<svg xmlns="http://www.w3.org/2000/svg" version="1.1" width="1000px" height="1000px" style="shape-rendering:geometricPrecision; text-rendering:geometricPrecision; image-rendering:optimizeQuality; fill-rule:evenodd; clip-rule:evenodd" xmlns:xlink="http://www.w3.org/1999/xlink">
<g><path style="opacity:0.984" fill="#1099eb" d="M 443.5,285.5 C 418.592,316.986 393.925,348.652 369.5,380.5C 369.014,346.746 369.514,313.08 371,279.5C 372.319,277.513 374.152,276.346 376.5,276C 396.833,275.333 417.167,275.333 437.5,276C 442.144,277.448 444.144,280.615 443.5,285.5 Z"/></g>
<g><path style="opacity:0.986" fill="#11a9ed" d="M 602.5,276.5 C 597.156,276.334 591.823,276.501 586.5,277C 569.63,299.682 552.297,321.849 534.5,343.5C 534.333,323.497 534.5,303.497 535,283.5C 535.066,280.724 536.232,278.558 538.5,277C 549.598,275.866 560.765,275.366 572,275.5C 582.339,275.5 592.506,275.833 602.5,276.5 Z"/></g>
<g><path style="opacity:0.998" fill="#13bfef" d="M 800.5,275.5 C 803.305,276.319 806.305,276.819 809.5,277C 718.333,396.167 627.167,515.333 536,634.5C 535.826,639.351 535.326,644.018 534.5,648.5C 534.5,623.167 534.5,597.833 534.5,572.5C 535.326,568.018 535.826,563.351 536,558.5C 559.667,527.5 583.333,496.5 607,465.5C 606.947,468.675 607.78,471.342 609.5,473.5C 612.355,472.166 614.855,470.166 617,467.5C 668,407.167 719,346.833 770,286.5C 777.664,276.221 787.83,272.554 800.5,275.5 Z"/></g>
<g><path style="opacity:0.993" fill="#14c4f0" d="M 800.5,275.5 C 817.503,275.333 834.503,275.5 851.5,276C 856.038,277.664 857.538,280.831 856,285.5C 852.667,290.167 849.333,294.833 846,299.5C 801.094,353.649 756.428,407.983 712,462.5C 711.333,463.833 711.333,465.167 712,466.5C 713.844,469.528 715.678,472.528 717.5,475.5C 701.816,494.36 686.649,513.693 672,533.5C 671.184,532.177 670.017,531.511 668.5,531.5C 666.225,527.385 663.725,523.385 661,519.5C 660.163,517.993 658.996,517.493 657.5,518C 640.958,536.874 624.791,556.04 609,575.5C 608.5,597.831 608.333,620.164 608.5,642.5C 607.671,634.677 607.171,626.677 607,618.5C 583.388,649.417 559.555,680.083 535.5,710.5C 534.503,690.007 534.169,669.34 534.5,648.5C 535.326,644.018 535.826,639.351 536,634.5C 627.167,515.333 718.333,396.167 809.5,277C 806.305,276.819 803.305,276.319 800.5,275.5 Z"/></g>
<g><path style="opacity:0.998" fill="#11aced" d="M 602.5,276.5 C 605.148,276.738 606.982,278.072 608,280.5C 608.5,295.163 608.667,309.83 608.5,324.5C 607.671,316.677 607.171,308.677 607,300.5C 583.333,331.167 559.667,361.833 536,392.5C 535.83,401.676 535.33,410.676 534.5,419.5C 534.5,394.167 534.5,368.833 534.5,343.5C 552.297,321.849 569.63,299.682 586.5,277C 591.823,276.501 597.156,276.334 602.5,276.5 Z"/></g>
<g><path style="opacity:0.992" fill="#109fec" d="M 443.5,285.5 C 443.5,319.5 443.5,353.5 443.5,387.5C 442.671,379.343 442.171,371.01 442,362.5C 418.333,393.5 394.667,424.5 371,455.5C 370.826,460.351 370.326,465.018 369.5,469.5C 369.5,439.833 369.5,410.167 369.5,380.5C 393.925,348.652 418.592,316.986 443.5,285.5 Z"/></g>
<g><path style="opacity:0.998" fill="#12b1ee" d="M 608.5,324.5 C 608.5,354.167 608.5,383.833 608.5,413.5C 607.671,405.343 607.171,397.01 607,388.5C 583.333,419.5 559.667,450.5 536,481.5C 535.826,486.684 535.326,491.684 534.5,496.5C 534.5,470.833 534.5,445.167 534.5,419.5C 535.33,410.676 535.83,401.676 536,392.5C 559.667,361.833 583.333,331.167 607,300.5C 607.171,308.677 607.671,316.677 608.5,324.5 Z"/></g>
<g><path style="opacity:0.994" fill="#11a5ec" d="M 443.5,387.5 C 443.5,412.833 443.5,438.167 443.5,463.5C 442.671,455.677 442.171,447.677 442,439.5C 417.97,471.019 393.803,502.352 369.5,533.5C 369.5,512.167 369.5,490.833 369.5,469.5C 370.326,465.018 370.826,460.351 371,455.5C 394.667,424.5 418.333,393.5 442,362.5C 442.171,371.01 442.671,379.343 443.5,387.5 Z"/></g>
<g><path style="opacity:1" fill="#13b8ee" d="M 608.5,413.5 C 608.179,433.576 608.513,453.576 609.5,473.5C 607.78,471.342 606.947,468.675 607,465.5C 583.333,496.5 559.667,527.5 536,558.5C 535.826,563.351 535.326,568.018 534.5,572.5C 534.5,547.167 534.5,521.833 534.5,496.5C 535.326,491.684 535.826,486.684 536,481.5C 559.667,450.5 583.333,419.5 607,388.5C 607.171,397.01 607.671,405.343 608.5,413.5 Z"/></g>
<g><path style="opacity:0.992" fill="#11a9ec" d="M 443.5,463.5 C 443.5,480.5 443.5,497.5 443.5,514.5C 443.167,514.5 442.833,514.5 442.5,514.5C 442.667,498.497 442.5,482.497 442,466.5C 418.297,497.931 394.13,528.931 369.5,559.5C 369.5,550.833 369.5,542.167 369.5,533.5C 393.803,502.352 417.97,471.019 442,439.5C 442.171,447.677 442.671,455.677 443.5,463.5 Z"/></g>
<g><path style="opacity:0.995" fill="#12acee" d="M 442.5,514.5 C 416.216,549.29 389.716,583.957 363,618.5C 362.601,618.272 362.435,617.938 362.5,617.5C 365.916,609.17 368.083,600.503 369,591.5C 369.5,580.839 369.667,570.172 369.5,559.5C 394.13,528.931 418.297,497.931 442,466.5C 442.5,482.497 442.667,498.497 442.5,514.5 Z"/></g>
<g><path style="opacity:0.992" fill="#14cbf0" d="M 717.5,475.5 C 728.011,491.192 738.011,507.192 747.5,523.5C 732.397,543.387 717.064,563.053 701.5,582.5C 690.749,565.33 679.749,548.33 668.5,531.5C 670.017,531.511 671.184,532.177 672,533.5C 686.649,513.693 701.816,494.36 717.5,475.5 Z"/></g>
<g><path style="opacity:0.999" fill="#12b1ed" d="M 442.5,514.5 C 442.833,514.5 443.167,514.5 443.5,514.5C 443.5,542.167 443.5,569.833 443.5,597.5C 413.815,635.19 384.482,673.19 355.5,711.5C 346.332,715.607 336.666,718.44 326.5,720C 313.589,722.16 300.589,723.326 287.5,723.5C 286.391,722.71 285.058,722.21 283.5,722C 304.226,696.541 324.226,670.541 343.5,644C 342.552,643.517 341.552,643.351 340.5,643.5C 349.681,636.325 357.015,627.658 362.5,617.5C 362.435,617.938 362.601,618.272 363,618.5C 389.716,583.957 416.216,549.29 442.5,514.5 Z"/></g>
<g><path style="opacity:0.991" fill="#15cff1" d="M 747.5,523.5 C 786.892,583.932 826.058,644.598 865,705.5C 867,709.167 867,712.833 865,716.5C 863.933,717.191 862.766,717.691 861.5,718C 838.5,718.667 815.5,718.667 792.5,718C 790.754,717.529 789.087,716.862 787.5,716C 758.216,671.886 729.549,627.386 701.5,582.5C 717.064,563.053 732.397,543.387 747.5,523.5 Z"/></g>
<g><path style="opacity:0.959" fill="#0f94eb" d="M 172.5,548.5 C 159.876,565.79 146.876,582.79 133.5,599.5C 132.834,592.174 132.5,584.674 132.5,577C 132.363,568.735 132.863,560.568 134,552.5C 135.319,550.513 137.152,549.346 139.5,549C 150.495,548.5 161.495,548.333 172.5,548.5 Z"/></g>
<g><path style="opacity:0.987" fill="#1099eb" d="M 172.5,548.5 C 181.506,548.334 190.506,548.5 199.5,549C 201.848,549.346 203.681,550.513 205,552.5C 206.447,566.427 206.947,580.427 206.5,594.5C 189.167,616.833 171.833,639.167 154.5,661.5C 141.926,642.778 134.926,622.112 133.5,599.5C 146.876,582.79 159.876,565.79 172.5,548.5 Z"/></g>
<g><path style="opacity:0.993" fill="#109fec" d="M 206.5,594.5 C 209.665,613.159 218.331,628.825 232.5,641.5C 229.79,640.593 227.623,641.593 226,644.5C 213.303,661.352 200.47,678.019 187.5,694.5C 174.167,685.833 163.167,674.833 154.5,661.5C 171.833,639.167 189.167,616.833 206.5,594.5 Z"/></g>
<g><path style="opacity:0.989" fill="#13b6ef" d="M 443.5,597.5 C 437.506,650.689 410.173,688.189 361.5,710C 359.564,710.813 357.564,711.313 355.5,711.5C 384.482,673.19 413.815,635.19 443.5,597.5 Z"/></g>
<g><path style="opacity:0.99" fill="#14caf0" d="M 608.5,642.5 C 608.667,666.169 608.5,689.836 608,713.5C 606.891,715.815 605.057,717.315 602.5,718C 582.167,718.667 561.833,718.667 541.5,718C 537.43,717.101 535.43,714.601 535.5,710.5C 559.555,680.083 583.388,649.417 607,618.5C 607.171,626.677 607.671,634.677 608.5,642.5 Z"/></g>
<g><path style="opacity:0.993" fill="#11a5ed" d="M 232.5,641.5 C 244.874,651.015 258.874,656.681 274.5,658.5C 260.433,676.29 246.6,694.29 233,712.5C 231.89,714.037 230.39,714.703 228.5,714.5C 213.301,710.733 199.635,704.066 187.5,694.5C 200.47,678.019 213.303,661.352 226,644.5C 227.623,641.593 229.79,640.593 232.5,641.5 Z"/></g>
<g><path style="opacity:0.997" fill="#11abed" d="M 340.5,643.5 C 341.552,643.351 342.552,643.517 343.5,644C 324.226,670.541 304.226,696.541 283.5,722C 285.058,722.21 286.391,722.71 287.5,723.5C 267.209,723.676 247.543,720.676 228.5,714.5C 230.39,714.703 231.89,714.037 233,712.5C 246.6,694.29 260.433,676.29 274.5,658.5C 298.449,661.646 320.449,656.646 340.5,643.5 Z"/></g>
</svg>